<mxfile host="app.diagrams.net" agent="Mozilla/5.0 (Macintosh; Intel Mac OS X 10_15_7) AppleWebKit/537.36 (KHTML, like Gecko) Chrome/127.0.0.0 Safari/537.36" version="24.7.6">
  <diagram name="Page-1" id="pnx0hJKzSiqrIeHpiHD5">
    <mxGraphModel dx="1050" dy="1071" grid="1" gridSize="10" guides="1" tooltips="1" connect="1" arrows="1" fold="1" page="1" pageScale="1" pageWidth="827" pageHeight="1169" math="0" shadow="0">
      <root>
        <mxCell id="0" />
        <mxCell id="1" parent="0" />
        <mxCell id="_gAZQvvrP7qtMvys7ONW-1" value="Policy Dashboard" style="rounded=0;whiteSpace=wrap;html=1;align=left;verticalAlign=top;" vertex="1" parent="1">
          <mxGeometry x="40" y="40" width="480" height="480" as="geometry" />
        </mxCell>
        <mxCell id="_gAZQvvrP7qtMvys7ONW-22" value="Get Dashboard&lt;div&gt;Data&lt;/div&gt;" style="edgeStyle=orthogonalEdgeStyle;rounded=0;orthogonalLoop=1;jettySize=auto;html=1;exitX=0.5;exitY=1;exitDx=0;exitDy=0;" edge="1" parent="1" source="_gAZQvvrP7qtMvys7ONW-4" target="_gAZQvvrP7qtMvys7ONW-7">
          <mxGeometry relative="1" as="geometry" />
        </mxCell>
        <mxCell id="_gAZQvvrP7qtMvys7ONW-23" value="Display Data&lt;div&gt;to User&lt;/div&gt;" style="edgeStyle=orthogonalEdgeStyle;rounded=0;orthogonalLoop=1;jettySize=auto;html=1;exitX=0;exitY=0.5;exitDx=0;exitDy=0;" edge="1" parent="1" source="_gAZQvvrP7qtMvys7ONW-4" target="_gAZQvvrP7qtMvys7ONW-15">
          <mxGeometry relative="1" as="geometry" />
        </mxCell>
        <mxCell id="_gAZQvvrP7qtMvys7ONW-4" value="Dashboard" style="rounded=1;whiteSpace=wrap;html=1;verticalAlign=middle;spacingTop=0;" vertex="1" parent="1">
          <mxGeometry x="360" y="90" width="120" height="80" as="geometry" />
        </mxCell>
        <mxCell id="_gAZQvvrP7qtMvys7ONW-6" value="GitHub API" style="ellipse;shape=cloud;whiteSpace=wrap;html=1;fillColor=#d5e8d4;strokeColor=#82b366;" vertex="1" parent="1">
          <mxGeometry x="360" y="395" width="120" height="80" as="geometry" />
        </mxCell>
        <mxCell id="_gAZQvvrP7qtMvys7ONW-7" value="S3&lt;div&gt;Bucket&lt;/div&gt;" style="ellipse;shape=cloud;whiteSpace=wrap;html=1;fillColor=#ffe6cc;strokeColor=#d79b00;" vertex="1" parent="1">
          <mxGeometry x="360" y="260" width="120" height="80" as="geometry" />
        </mxCell>
        <mxCell id="_gAZQvvrP7qtMvys7ONW-21" value="Upload Dataset&lt;div&gt;to S3&lt;/div&gt;" style="edgeStyle=orthogonalEdgeStyle;rounded=0;orthogonalLoop=1;jettySize=auto;html=1;exitX=1;exitY=0.25;exitDx=0;exitDy=0;" edge="1" parent="1" source="_gAZQvvrP7qtMvys7ONW-9" target="_gAZQvvrP7qtMvys7ONW-7">
          <mxGeometry relative="1" as="geometry">
            <Array as="points">
              <mxPoint x="270" y="300" />
              <mxPoint x="270" y="300" />
            </Array>
          </mxGeometry>
        </mxCell>
        <mxCell id="_gAZQvvrP7qtMvys7ONW-9" value="Lambda Function" style="rounded=1;whiteSpace=wrap;html=1;verticalAlign=top;spacingTop=5;" vertex="1" parent="1">
          <mxGeometry x="80" y="240" width="160" height="240" as="geometry" />
        </mxCell>
        <mxCell id="_gAZQvvrP7qtMvys7ONW-19" value="Apply Checks to&lt;div&gt;Datasets&lt;/div&gt;" style="edgeStyle=orthogonalEdgeStyle;rounded=0;orthogonalLoop=1;jettySize=auto;html=1;" edge="1" parent="1" source="_gAZQvvrP7qtMvys7ONW-10" target="_gAZQvvrP7qtMvys7ONW-17">
          <mxGeometry relative="1" as="geometry" />
        </mxCell>
        <mxCell id="_gAZQvvrP7qtMvys7ONW-20" value="Get API Response&lt;div&gt;for Repository&lt;/div&gt;&lt;div&gt;Information&lt;/div&gt;" style="edgeStyle=orthogonalEdgeStyle;rounded=0;orthogonalLoop=1;jettySize=auto;html=1;exitX=1;exitY=0.5;exitDx=0;exitDy=0;" edge="1" parent="1" source="_gAZQvvrP7qtMvys7ONW-10" target="_gAZQvvrP7qtMvys7ONW-6">
          <mxGeometry relative="1" as="geometry" />
        </mxCell>
        <mxCell id="_gAZQvvrP7qtMvys7ONW-10" value="GitHub API Toolkit&lt;div&gt;(Imported)&lt;/div&gt;" style="rounded=1;whiteSpace=wrap;html=1;fillColor=#f8cecc;strokeColor=#b85450;" vertex="1" parent="1">
          <mxGeometry x="100" y="405" width="120" height="60" as="geometry" />
        </mxCell>
        <mxCell id="_gAZQvvrP7qtMvys7ONW-15" value="User" style="shape=umlActor;verticalLabelPosition=top;verticalAlign=bottom;html=1;outlineConnect=0;labelPosition=center;align=center;" vertex="1" parent="1">
          <mxGeometry x="145" y="100" width="30" height="60" as="geometry" />
        </mxCell>
        <mxCell id="_gAZQvvrP7qtMvys7ONW-17" value="policy_checks.py" style="rounded=1;whiteSpace=wrap;html=1;fillColor=#f8cecc;strokeColor=#b85450;" vertex="1" parent="1">
          <mxGeometry x="100" y="270" width="120" height="60" as="geometry" />
        </mxCell>
      </root>
    </mxGraphModel>
  </diagram>
</mxfile>
